<svg xmlns="http://www.w3.org/2000/svg" xmlns:xlink="http://www.w3.org/1999/xlink" viewBox="0 0 643.89 288.04"><defs><style>.cls-1{fill:none;}.cls-2{clip-path:url(#clip-path);}.cls-3{opacity:0.7;fill:url(#linear-gradient);}.cls-4{fill:#a9d0de;}.cls-5{fill:#6b9eb5;}.cls-6{fill:#508098;}.cls-7{fill:#31526b;}</style><clipPath id="clip-path"><rect class="cls-1" x="-34.62" y="-84.1" width="679.06" height="446.01"/></clipPath><linearGradient id="linear-gradient" x1="432.92" y1="246.3" x2="432.92" y2="102.51" gradientUnits="userSpaceOnUse"><stop offset="0" stop-color="#ccdeff"/><stop offset="0.21" stop-color="#c7dbff"/><stop offset="0.45" stop-color="#bad2ff"/><stop offset="0.7" stop-color="#a3c3ff"/><stop offset="0.96" stop-color="#84afff"/><stop offset="1" stop-color="#7fabff"/></linearGradient></defs><title>Artboard 2</title><g id="Layer_3" data-name="Layer 3"><g class="cls-2"><path class="cls-3" d="M653.2,172.88c-6.79-6-11.29-14.06-21.77-16.68-11.88-3-23.91-4.89-35.5-9.88-6.45-2.78-11.55-6.5-17.12-10.35s-10.75-4.69-17.19-6.35c-8-2-15.09-4.11-21.68-9.06-3.64-2.74-7.17-8.09-11.24-10.19-5.15-2.65-9.25-.85-14.17-4.92-2.19-1.81-3.46-4.56-6.36-5.59-2.28-.81-5.07.6-7.19-.58-1.28-.72-2.79-4.6-4.1-5.9-1.75-1.72-3.07-1.76-5.09-3.35-6.38-5-8-.49-14.15,2.7-6.78,3.5-7.9,8.48-14.63,12.09-8.56,4.58-18,9.8-22.9,15.9-5.12,6.34-17.49,6.69-24.81,10.81-16.46,9.29-25.68,10.46-44.53,15.27-9.58,2.44-20.56-.15-30.08,1s-18.85-1.23-27.92,1.66c-21.82,7-44.6,17.69-69.22,15.89l-30.9,15.23,434.77,18.53"/><path class="cls-4" d="M-35,183.06C-22.4,186.54-19.47,181-9.22,177c7.9-3.1,15.78-1.44,24-.34,12.17,1.62,14.54-1.26,25.54-2.42,10.5-1.11,21.37.36,31.93-.07,11.51-.46,19.08-4.41,29.36-6.42,11-2.16,17.39.46,27.1-5.95,2.3-1.51,9.31-8.89,11.18-9.07,7.35-.69,5.09,4,10.19,6.49,11.3,5.53,19.08,5.39,30.7,4.78,8.48-.44,20.08,2.37,29.37.09,5.64-1.39,7.7-5.47,14-6.46,4.54-.7,10.86.41,15.32,1.28,9.55,1.85,15.32,5.7,25.54,6.36,10.73.69,20.53,0,30.68,2.51,17.49,4.4,42.32,7.33,61.26,3.56,11.67-2.32,17.09-7.19,29.37-6.39,11.84.78,17-1.42,28.09-3.53,8.55-1.63,16.71-2.29,25.54-5,8.61-2.66,17.51-6.86,26.81-6.46,11,.48,21.64,3.9,33.2,3.89,9.54,0,19.43-.18,28.06,2.58,37.44,12,78.65,8.92,118.79,11.41l2.55,81.42L-38.88,268.29"/><path class="cls-5" d="M121.42,190.69c21.48,2.07,46.47-2.58,66.19-8.59,21.6-6.58,39.9,4.05,61-1.24,23.74-6,39.46-6.17,62.41,1.84,21.38,7.47,38.1,11.32,60,4.46,10.83-3.39,21.21-6.75,32.79-6.65,13.28.13,17.16-2.55,29.26-6.64,20.42-6.9,42.49,1.39,63.61.35s41.3,5.47,62.34,7.57c22.37,2.24,44.76,0,67.42,0,6.92,0,16.23-1,21.63,1.27l1.27,66.15-529.23,22.9"/><path class="cls-6" d="M-30,199.6c11.62.72,21.78-5.8,33.08-6.36,10.17-.51,19.47,3.74,29.26,4.8C55.2,200.52,68,183.57,89.62,180.8c20.28-2.6,40.15,15,59.75,9.57,12.94-3.56,14.33-6.67,28.09-2.54,10.07,3,17.51,4.41,28.91,3.85,22.45-1.1,38.55,8.24,57.89,19.65,24.67,14.55,48.69,27.92,75.59,37.95-20.66.2-41-3.41-61.82-2.64-31.4,1.15-62.64,6.38-94.21,7.59C117.54,256.8,52,260.66-14.7,260.66"/><path class="cls-7" d="M-10.89,223.77c22.13,12.87,47.23-1.2,70,2.54C69.59,228,78.6,236.25,89.62,239c10.39,2.56,21,7.22,31.8,7.71,19.67.88,45.74,1,64.88-2.52,21.48-3.94,35.48-17.78,58.59-16.63,39.93,2,81.17,15.56,118-4,12.26-6.53,14-4.71,28.27-.65,10.78,3.08,20.05-1.51,30.54,1.25,18.92,5,44.28,12.68,62.65,5,5.87-2.44,11-7.71,17.21-9.5,3-.86,7.56.23,10.47-.68,2.57-.81,6.52-4.3,9.22-5,13.68-3.76,28.69,1.58,42.94-3.8,12.49-4.72,24.24-13.52,38.19-13.1,6.74.21,14.42,4.39,21.6,5.12,7.91.81,15.8-1.6,22.9,2.55l1.27,161.57H-36.33"/></g><rect class="cls-1" x="-50.37" y="-97.74" width="709.46" height="476.24"/></g></svg>